<svg width="40" height="40" viewBox="0 0 40 40" fill="none" xmlns="http://www.w3.org/2000/svg">
<mask id="mask0_72_8" style="mask-type:alpha" maskUnits="userSpaceOnUse" x="0" y="0" width="40" height="40">
<rect width="40" height="40" fill="#D9D9D9"/>
</mask>
<g mask="url(#mask0_72_8)">
<path d="M33.5833 21.6667H13.3333V18.3333H33.5833L31 15.75L33.3333 13.3333L40 20L33.3333 26.6667L31 24.25L33.5833 21.6667ZM25 15V8.33333H8.33333V31.6667H25V25H28.3333V31.6667C28.3333 32.5833 28.0069 33.3681 27.3542 34.0208C26.7014 34.6736 25.9167 35 25 35H8.33333C7.41667 35 6.63194 34.6736 5.97917 34.0208C5.32639 33.3681 5 32.5833 5 31.6667V8.33333C5 7.41667 5.32639 6.63194 5.97917 5.97917C6.63194 5.32639 7.41667 5 8.33333 5H25C25.9167 5 26.7014 5.32639 27.3542 5.97917C28.0069 6.63194 28.3333 7.41667 28.3333 8.33333V15H25Z" fill="#C62E2E"/>
</g>
</svg>
